<?xml version="1.0" standalone="no"?>
<!DOCTYPE svg PUBLIC "-//W3C//DTD SVG 20010904//EN"
 "http://www.w3.org/TR/2001/REC-SVG-20010904/DTD/svg10.dtd">
<svg version="1.0" xmlns="http://www.w3.org/2000/svg"
 width="270.000000pt" height="270.000000pt" viewBox="0 0 270.000000 270.000000"
 preserveAspectRatio="xMidYMid meet">
<metadata>
Created by potrace 1.14, written by Peter Selinger 2001-2017
</metadata>
<g transform="translate(0.000000,270.000000) scale(0.100000,-0.100000)"
fill="#000000" stroke="none">
<path d="M2602 1785 c0 -5 6 -26 13 -45 7 -19 14 -28 14 -20 0 8 -6 29 -14 45
-7 17 -13 26 -13 20z"/>
<path d="M2631 1690 c0 -8 4 -24 9 -35 5 -13 9 -14 9 -5 0 8 -4 24 -9 35 -5
13 -9 14 -9 5z"/>
<path d="M544 1585 c-23 -35 -7 -87 45 -153 67 -84 194 -140 296 -129 154 16
332 184 280 264 -19 29 -43 29 -108 -1 -140 -64 -279 -60 -415 11 -35 18 -68
33 -73 33 -5 0 -16 -11 -25 -25z"/>
<path d="M1517 1592 c-21 -24 -21 -54 0 -95 59 -116 182 -192 308 -192 92 1
168 31 240 96 59 55 85 97 85 140 0 53 -49 62 -126 25 -131 -64 -265 -61 -406
10 -77 39 -80 40 -101 16z"/>
<path d="M2662 1555 c0 -16 2 -22 5 -12 2 9 2 23 0 30 -3 6 -5 -1 -5 -18z"/>
<path d="M2672 1500 c0 -14 2 -19 5 -12 2 6 2 18 0 25 -3 6 -5 1 -5 -13z"/>
<path d="M2662 1130 c0 -14 2 -19 5 -12 2 6 2 18 0 25 -3 6 -5 1 -5 -13z"/>
<path d="M1025 1089 c-38 -4 -83 -5 -98 -2 -26 4 -39 -5 -125 -94 -127 -131
-182 -229 -182 -325 0 -54 4 -68 23 -85 56 -50 119 -53 323 -14 194 37 233 41
376 41 146 0 255 -13 427 -50 156 -33 253 -23 281 29 17 32 11 116 -11 178
-27 73 -89 160 -173 242 -64 63 -66 64 -123 67 -32 1 -112 7 -178 13 -135 12
-434 12 -540 0z"/>
<path d="M2641 1024 c0 -11 3 -14 6 -6 3 7 2 16 -1 19 -3 4 -6 -2 -5 -13z"/>
</g>
</svg>
